<svg width="1035" height="681" viewBox="0 0 1035 681" fill="none" xmlns="http://www.w3.org/2000/svg">
<g clip-path="url(#clip0_49_761)">
<path d="M654.638 171.827H526.257V144.055C526.257 142.293 525.557 140.603 524.312 139.357C523.066 138.112 521.377 137.412 519.616 137.412H481.916V107.829C481.916 106.72 481.476 105.656 480.692 104.872C479.908 104.088 478.844 103.647 477.735 103.647H429.174C428.065 103.647 427.001 104.088 426.217 104.872C425.433 105.656 424.993 106.72 424.993 107.829V137.422H380.672C378.911 137.422 377.221 138.122 375.976 139.367C374.73 140.613 374.03 142.303 374.03 144.065V171.837H251.611C251.254 171.84 250.914 171.983 250.662 172.236C250.411 172.489 250.27 172.831 250.271 173.187V541.859C250.27 542.216 250.411 542.558 250.662 542.811C250.914 543.064 251.254 543.207 251.611 543.21H332.97C333.329 543.21 333.672 543.067 333.925 542.814C334.179 542.561 334.321 542.217 334.321 541.859V492.257C334.323 491.9 334.467 491.558 334.719 491.305C334.972 491.053 335.314 490.909 335.671 490.907H370.039C370.397 490.909 370.739 491.053 370.991 491.305C371.244 491.558 371.387 491.9 371.39 492.257V541.859C371.39 542.216 371.531 542.558 371.782 542.811C372.033 543.064 372.374 543.207 372.73 543.21H533.499C533.856 543.207 534.198 543.064 534.451 542.811C534.704 542.559 534.847 542.217 534.849 541.859V492.257C534.849 491.901 534.99 491.559 535.241 491.306C535.492 491.053 535.833 490.909 536.19 490.907H570.558C570.916 490.907 571.259 491.049 571.513 491.302C571.766 491.556 571.908 491.899 571.908 492.257V541.859C571.911 542.217 572.054 542.559 572.307 542.811C572.559 543.064 572.901 543.207 573.259 543.21H654.618C654.976 543.207 655.317 543.064 655.57 542.811C655.823 542.559 655.966 542.217 655.969 541.859V173.177C655.966 172.823 655.826 172.484 655.577 172.232C655.329 171.98 654.992 171.835 654.638 171.827ZM319.757 473.679C319.757 474.035 319.616 474.376 319.365 474.627C319.113 474.879 318.772 475.02 318.417 475.02H268.165C267.988 475.021 267.813 474.987 267.649 474.921C267.485 474.854 267.336 474.755 267.211 474.631C267.085 474.506 266.985 474.358 266.917 474.195C266.849 474.031 266.815 473.856 266.815 473.679V456.562C266.815 456.384 266.849 456.209 266.917 456.045C266.985 455.881 267.085 455.732 267.21 455.607C267.335 455.481 267.484 455.382 267.648 455.314C267.812 455.246 267.988 455.211 268.165 455.211H318.447C318.803 455.214 319.144 455.357 319.395 455.61C319.646 455.863 319.787 456.205 319.787 456.562L319.757 473.679ZM319.757 429.32C319.759 429.497 319.725 429.672 319.658 429.836C319.591 430 319.493 430.149 319.368 430.274C319.244 430.4 319.095 430.499 318.932 430.567C318.769 430.635 318.594 430.67 318.417 430.67H268.165C267.987 430.672 267.811 430.638 267.647 430.57C267.482 430.503 267.333 430.403 267.207 430.278C267.081 430.152 266.982 430.003 266.915 429.838C266.847 429.674 266.813 429.498 266.815 429.32V412.162C266.813 411.985 266.847 411.808 266.915 411.644C266.982 411.479 267.081 411.33 267.207 411.204C267.333 411.079 267.482 410.979 267.647 410.912C267.811 410.844 267.987 410.81 268.165 410.812H318.447C318.624 410.812 318.799 410.847 318.962 410.915C319.125 410.983 319.274 411.082 319.398 411.208C319.523 411.333 319.621 411.482 319.688 411.646C319.755 411.81 319.789 411.985 319.787 412.162L319.757 429.32ZM319.757 384.97C319.757 385.327 319.616 385.669 319.365 385.922C319.114 386.175 318.773 386.318 318.417 386.321H268.165C267.988 386.321 267.812 386.286 267.648 386.218C267.484 386.15 267.335 386.051 267.21 385.925C267.085 385.8 266.985 385.651 266.917 385.487C266.849 385.323 266.815 385.148 266.815 384.97V367.803C266.815 367.625 266.849 367.45 266.917 367.286C266.985 367.122 267.085 366.973 267.21 366.848C267.335 366.722 267.484 366.623 267.648 366.555C267.812 366.487 267.988 366.452 268.165 366.452H318.447C318.803 366.455 319.144 366.598 319.395 366.851C319.646 367.104 319.787 367.446 319.787 367.803L319.757 384.97ZM319.757 340.611C319.759 340.788 319.725 340.963 319.658 341.127C319.591 341.291 319.493 341.44 319.368 341.565C319.244 341.691 319.095 341.79 318.932 341.858C318.769 341.926 318.594 341.961 318.417 341.961H268.165C267.987 341.963 267.811 341.929 267.647 341.861C267.482 341.794 267.333 341.695 267.207 341.569C267.081 341.443 266.982 341.294 266.915 341.129C266.847 340.965 266.813 340.789 266.815 340.611V323.503C266.813 323.326 266.847 323.149 266.915 322.985C266.982 322.82 267.081 322.671 267.207 322.545C267.333 322.42 267.482 322.32 267.647 322.253C267.811 322.185 267.987 322.151 268.165 322.153H318.447C318.624 322.153 318.799 322.188 318.962 322.256C319.125 322.324 319.274 322.423 319.398 322.549C319.523 322.675 319.621 322.823 319.688 322.987C319.755 323.151 319.789 323.326 319.787 323.503L319.757 340.611ZM319.757 296.261C319.757 296.618 319.616 296.96 319.365 297.213C319.114 297.466 318.773 297.609 318.417 297.612H268.165C267.988 297.612 267.812 297.577 267.648 297.509C267.484 297.441 267.335 297.342 267.21 297.216C267.085 297.091 266.985 296.942 266.917 296.778C266.849 296.614 266.815 296.439 266.815 296.261V279.094C266.815 278.917 266.849 278.742 266.917 278.579C266.985 278.415 267.085 278.267 267.211 278.142C267.336 278.018 267.485 277.919 267.649 277.852C267.813 277.786 267.988 277.752 268.165 277.753H318.447C318.802 277.753 319.143 277.895 319.395 278.146C319.646 278.397 319.787 278.738 319.787 279.094L319.757 296.261ZM319.757 251.912C319.757 252.268 319.616 252.609 319.365 252.86C319.113 253.111 318.772 253.253 318.417 253.253H268.165C267.988 253.254 267.813 253.22 267.649 253.153C267.485 253.087 267.336 252.988 267.211 252.863C267.085 252.739 266.985 252.591 266.917 252.427C266.849 252.264 266.815 252.089 266.815 251.912V234.744C266.815 234.567 266.849 234.391 266.917 234.228C266.985 234.064 267.085 233.915 267.21 233.789C267.335 233.664 267.484 233.565 267.648 233.497C267.812 233.429 267.988 233.394 268.165 233.394H318.447C318.803 233.396 319.144 233.54 319.395 233.793C319.646 234.046 319.787 234.388 319.787 234.744L319.757 251.912ZM319.757 207.553C319.759 207.729 319.725 207.905 319.658 208.069C319.591 208.232 319.493 208.381 319.368 208.507C319.244 208.632 319.095 208.732 318.932 208.8C318.769 208.868 318.594 208.903 318.417 208.903H268.165C267.987 208.904 267.811 208.87 267.647 208.803C267.482 208.736 267.333 208.636 267.207 208.511C267.081 208.385 266.982 208.235 266.915 208.071C266.847 207.906 266.813 207.73 266.815 207.553V190.445C266.813 190.267 266.847 190.091 266.915 189.927C266.982 189.762 267.081 189.613 267.207 189.487C267.333 189.361 267.482 189.262 267.647 189.195C267.811 189.127 267.987 189.093 268.165 189.094H318.447C318.624 189.094 318.799 189.129 318.962 189.197C319.125 189.265 319.274 189.365 319.398 189.491C319.523 189.616 319.621 189.765 319.688 189.929C319.755 190.093 319.789 190.268 319.787 190.445L319.757 207.553ZM438.896 473.669C438.896 473.846 438.861 474.021 438.793 474.185C438.725 474.348 438.625 474.496 438.5 474.621C438.374 474.745 438.226 474.844 438.062 474.911C437.898 474.977 437.723 475.011 437.546 475.01H387.294C386.937 475.01 386.595 474.869 386.342 474.618C386.089 474.367 385.946 474.026 385.943 473.669V456.562C385.946 456.204 386.089 455.862 386.342 455.61C386.594 455.357 386.936 455.214 387.294 455.211H437.546C437.723 455.211 437.899 455.246 438.062 455.314C438.226 455.382 438.375 455.481 438.501 455.607C438.626 455.732 438.725 455.881 438.793 456.045C438.861 456.209 438.896 456.384 438.896 456.562V473.669ZM438.896 429.31C438.897 429.488 438.863 429.664 438.796 429.828C438.729 429.993 438.629 430.142 438.504 430.268C438.378 430.393 438.229 430.493 438.064 430.56C437.9 430.628 437.723 430.662 437.546 430.66H387.294C386.935 430.66 386.592 430.518 386.339 430.265C386.086 430.012 385.943 429.668 385.943 429.31V412.162C385.943 411.804 386.086 411.461 386.339 411.207C386.592 410.954 386.935 410.812 387.294 410.812H437.546C437.723 410.81 437.9 410.844 438.064 410.912C438.229 410.979 438.378 411.079 438.504 411.204C438.629 411.33 438.729 411.479 438.796 411.644C438.863 411.808 438.897 411.985 438.896 412.162V429.31ZM438.896 384.96C438.896 385.138 438.861 385.313 438.793 385.477C438.725 385.641 438.626 385.79 438.501 385.915C438.375 386.041 438.226 386.14 438.062 386.208C437.899 386.276 437.723 386.311 437.546 386.311H387.294C386.936 386.308 386.594 386.165 386.342 385.912C386.089 385.66 385.946 385.318 385.943 384.96V367.803C385.946 367.445 386.089 367.103 386.342 366.851C386.594 366.598 386.936 366.455 387.294 366.452H437.546C437.723 366.452 437.899 366.487 438.062 366.555C438.226 366.623 438.375 366.722 438.501 366.848C438.626 366.973 438.725 367.122 438.793 367.286C438.861 367.45 438.896 367.625 438.896 367.803V384.96ZM438.896 340.601C438.897 340.779 438.863 340.955 438.796 341.119C438.729 341.284 438.629 341.433 438.504 341.559C438.378 341.685 438.229 341.784 438.064 341.851C437.9 341.919 437.723 341.953 437.546 341.951H387.294C386.935 341.951 386.592 341.809 386.339 341.556C386.086 341.303 385.943 340.959 385.943 340.601V323.503C385.943 323.145 386.086 322.802 386.339 322.548C386.592 322.295 386.935 322.153 387.294 322.153H437.546C437.723 322.151 437.9 322.185 438.064 322.253C438.229 322.32 438.378 322.42 438.504 322.545C438.629 322.671 438.729 322.82 438.796 322.985C438.863 323.149 438.897 323.326 438.896 323.503V340.601ZM438.896 296.251C438.896 296.429 438.861 296.604 438.793 296.768C438.725 296.932 438.626 297.081 438.501 297.206C438.375 297.332 438.226 297.431 438.062 297.499C437.899 297.567 437.723 297.602 437.546 297.602H387.294C386.936 297.599 386.594 297.456 386.342 297.204C386.089 296.951 385.946 296.609 385.943 296.251V279.094C385.946 278.737 386.089 278.396 386.342 278.145C386.595 277.894 386.937 277.753 387.294 277.753H437.546C437.723 277.752 437.898 277.786 438.062 277.852C438.226 277.919 438.374 278.018 438.5 278.142C438.625 278.267 438.725 278.415 438.793 278.579C438.861 278.742 438.896 278.917 438.896 279.094V296.251ZM438.896 251.902C438.896 252.079 438.861 252.254 438.793 252.417C438.725 252.581 438.625 252.729 438.5 252.853C438.374 252.978 438.226 253.077 438.062 253.143C437.898 253.21 437.723 253.244 437.546 253.243H387.294C386.937 253.243 386.595 253.102 386.342 252.851C386.089 252.599 385.946 252.258 385.943 251.902V234.744C385.946 234.387 386.089 234.045 386.342 233.792C386.594 233.54 386.936 233.396 387.294 233.394H437.546C437.723 233.394 437.899 233.429 438.062 233.497C438.226 233.565 438.375 233.664 438.501 233.789C438.626 233.915 438.725 234.064 438.793 234.228C438.861 234.391 438.896 234.567 438.896 234.744V251.902ZM438.896 207.543C438.897 207.72 438.863 207.896 438.796 208.061C438.729 208.225 438.629 208.375 438.504 208.5C438.378 208.626 438.229 208.726 438.064 208.793C437.9 208.86 437.723 208.894 437.546 208.893H387.294C386.935 208.893 386.592 208.751 386.339 208.498C386.086 208.244 385.943 207.901 385.943 207.543V190.445C385.943 190.087 386.086 189.743 386.339 189.49C386.592 189.237 386.935 189.094 387.294 189.094H437.546C437.723 189.093 437.9 189.127 438.064 189.195C438.229 189.262 438.378 189.361 438.504 189.487C438.629 189.613 438.729 189.762 438.796 189.927C438.863 190.091 438.897 190.267 438.896 190.445V207.543ZM520.306 473.659C520.306 473.836 520.271 474.011 520.203 474.175C520.135 474.338 520.035 474.486 519.91 474.611C519.784 474.735 519.635 474.834 519.471 474.901C519.308 474.967 519.132 475.001 518.955 475H468.703C468.347 475 468.005 474.859 467.752 474.608C467.499 474.357 467.356 474.016 467.353 473.659V456.562C467.356 456.204 467.499 455.862 467.751 455.61C468.004 455.357 468.346 455.214 468.703 455.211H518.955C519.314 455.211 519.657 455.353 519.91 455.607C520.163 455.86 520.306 456.204 520.306 456.562V473.659ZM520.306 429.3C520.307 429.478 520.273 429.654 520.206 429.818C520.138 429.983 520.039 430.132 519.913 430.258C519.788 430.383 519.638 430.483 519.474 430.55C519.309 430.618 519.133 430.652 518.955 430.65H468.703C468.345 430.65 468.002 430.508 467.748 430.255C467.495 430.001 467.353 429.658 467.353 429.3V412.162C467.353 411.804 467.495 411.461 467.748 411.207C468.002 410.954 468.345 410.812 468.703 410.812H518.955C519.133 410.81 519.309 410.844 519.474 410.912C519.638 410.979 519.788 411.079 519.913 411.204C520.039 411.33 520.138 411.479 520.206 411.644C520.273 411.808 520.307 411.985 520.306 412.162V429.3ZM520.306 384.95C520.306 385.309 520.163 385.652 519.91 385.905C519.657 386.159 519.314 386.301 518.955 386.301H468.703C468.346 386.298 468.004 386.155 467.751 385.902C467.499 385.65 467.356 385.308 467.353 384.95V367.803C467.356 367.445 467.499 367.103 467.751 366.851C468.004 366.598 468.346 366.455 468.703 366.452H518.955C519.314 366.452 519.657 366.594 519.91 366.848C520.163 367.101 520.306 367.445 520.306 367.803V384.95ZM520.306 340.591C520.307 340.769 520.273 340.945 520.206 341.109C520.138 341.274 520.039 341.423 519.913 341.549C519.788 341.675 519.638 341.774 519.474 341.841C519.309 341.909 519.133 341.943 518.955 341.941H468.703C468.345 341.941 468.002 341.799 467.748 341.546C467.495 341.293 467.353 340.949 467.353 340.591V323.503C467.353 323.145 467.495 322.802 467.748 322.548C468.002 322.295 468.345 322.153 468.703 322.153H518.955C519.133 322.151 519.309 322.185 519.474 322.253C519.638 322.32 519.788 322.42 519.913 322.545C520.039 322.671 520.138 322.82 520.206 322.985C520.273 323.149 520.307 323.326 520.306 323.503V340.591ZM520.306 296.241C520.306 296.6 520.163 296.943 519.91 297.196C519.657 297.45 519.314 297.592 518.955 297.592H468.703C468.346 297.589 468.004 297.446 467.751 297.194C467.499 296.941 467.356 296.599 467.353 296.241V279.094C467.356 278.737 467.499 278.396 467.752 278.145C468.005 277.894 468.347 277.753 468.703 277.753H518.955C519.132 277.752 519.308 277.786 519.471 277.852C519.635 277.919 519.784 278.018 519.91 278.142C520.035 278.267 520.135 278.415 520.203 278.579C520.271 278.742 520.306 278.917 520.306 279.094V296.241ZM520.306 251.892C520.306 252.069 520.271 252.244 520.203 252.407C520.135 252.571 520.035 252.719 519.91 252.843C519.784 252.968 519.635 253.067 519.471 253.133C519.308 253.2 519.132 253.234 518.955 253.233H468.703C468.347 253.233 468.005 253.092 467.752 252.841C467.499 252.589 467.356 252.248 467.353 251.892V234.744C467.356 234.387 467.499 234.045 467.751 233.792C468.004 233.54 468.346 233.396 468.703 233.394H518.955C519.314 233.394 519.657 233.536 519.91 233.789C520.163 234.043 520.306 234.386 520.306 234.744V251.892ZM520.306 207.533C520.307 207.71 520.273 207.886 520.206 208.051C520.138 208.215 520.039 208.365 519.913 208.491C519.788 208.616 519.638 208.716 519.474 208.783C519.309 208.85 519.133 208.884 518.955 208.883H468.703C468.345 208.883 468.002 208.741 467.748 208.488C467.495 208.234 467.353 207.891 467.353 207.533V190.445C467.353 190.087 467.495 189.743 467.748 189.49C468.002 189.237 468.345 189.094 468.703 189.094H518.955C519.133 189.093 519.309 189.127 519.474 189.195C519.638 189.262 519.788 189.361 519.913 189.487C520.039 189.613 520.138 189.762 520.206 189.927C520.273 190.091 520.307 190.267 520.306 190.445V207.533ZM639.445 473.649C639.442 474.006 639.298 474.347 639.046 474.598C638.793 474.849 638.451 474.99 638.094 474.99H587.842C587.665 474.991 587.49 474.957 587.326 474.891C587.162 474.824 587.013 474.725 586.888 474.601C586.762 474.476 586.663 474.328 586.595 474.165C586.527 474.001 586.492 473.826 586.492 473.649V456.562C586.492 456.204 586.634 455.86 586.887 455.607C587.141 455.353 587.484 455.211 587.842 455.211H638.094C638.452 455.214 638.793 455.357 639.046 455.61C639.299 455.862 639.442 456.204 639.445 456.562V473.649ZM639.445 429.29C639.445 429.648 639.302 429.991 639.049 430.245C638.796 430.498 638.452 430.64 638.094 430.64H587.842C587.664 430.642 587.488 430.608 587.324 430.54C587.159 430.473 587.01 430.373 586.884 430.248C586.759 430.122 586.659 429.973 586.592 429.808C586.524 429.644 586.49 429.467 586.492 429.29V412.162C586.49 411.985 586.524 411.808 586.592 411.644C586.659 411.479 586.759 411.33 586.884 411.204C587.01 411.079 587.159 410.979 587.324 410.912C587.488 410.844 587.664 410.81 587.842 410.812H638.094C638.452 410.812 638.796 410.954 639.049 411.207C639.302 411.461 639.445 411.804 639.445 412.162V429.29ZM639.445 384.94C639.442 385.298 639.299 385.64 639.046 385.892C638.793 386.145 638.452 386.288 638.094 386.291H587.842C587.484 386.291 587.141 386.149 586.887 385.895C586.634 385.642 586.492 385.298 586.492 384.94V367.803C586.492 367.445 586.634 367.101 586.887 366.848C587.141 366.594 587.484 366.452 587.842 366.452H638.094C638.452 366.455 638.793 366.598 639.046 366.851C639.299 367.103 639.442 367.445 639.445 367.803V384.94ZM639.445 340.581C639.445 340.939 639.302 341.283 639.049 341.536C638.796 341.789 638.452 341.931 638.094 341.931H587.842C587.492 341.929 587.156 341.789 586.908 341.542C586.659 341.296 586.517 340.961 586.512 340.611V323.503C586.51 323.326 586.544 323.149 586.612 322.985C586.679 322.82 586.779 322.671 586.904 322.545C587.03 322.42 587.179 322.32 587.344 322.253C587.508 322.185 587.684 322.151 587.862 322.153H638.114C638.472 322.153 638.816 322.295 639.069 322.548C639.322 322.802 639.465 323.145 639.465 323.503L639.445 340.581ZM639.445 296.231C639.442 296.589 639.299 296.931 639.046 297.184C638.793 297.436 638.452 297.579 638.094 297.582H587.842C587.484 297.582 587.141 297.44 586.887 297.186C586.634 296.933 586.492 296.59 586.492 296.231V279.094C586.492 278.917 586.527 278.742 586.595 278.579C586.663 278.415 586.762 278.267 586.888 278.142C587.013 278.018 587.162 277.919 587.326 277.852C587.49 277.786 587.665 277.752 587.842 277.753H638.094C638.451 277.753 638.793 277.894 639.046 278.145C639.298 278.396 639.442 278.737 639.445 279.094V296.231ZM639.445 251.882C639.442 252.238 639.298 252.579 639.046 252.831C638.793 253.082 638.451 253.223 638.094 253.223H587.842C587.665 253.224 587.49 253.19 587.326 253.123C587.162 253.057 587.013 252.958 586.888 252.833C586.762 252.709 586.663 252.561 586.595 252.397C586.527 252.234 586.492 252.059 586.492 251.882V234.744C586.492 234.386 586.634 234.043 586.887 233.789C587.141 233.536 587.484 233.394 587.842 233.394H638.094C638.452 233.396 638.793 233.54 639.046 233.792C639.299 234.045 639.442 234.387 639.445 234.744V251.882ZM639.445 207.523C639.445 207.7 639.41 207.875 639.342 208.039C639.274 208.203 639.174 208.352 639.049 208.478C638.924 208.603 638.775 208.702 638.611 208.77C638.447 208.838 638.272 208.873 638.094 208.873H587.842C587.492 208.871 587.156 208.731 586.908 208.484C586.659 208.237 586.517 207.903 586.512 207.553V190.445C586.51 190.267 586.544 190.091 586.612 189.927C586.679 189.762 586.779 189.613 586.904 189.487C587.03 189.361 587.179 189.262 587.344 189.195C587.508 189.127 587.684 189.093 587.862 189.094H638.114C638.472 189.094 638.816 189.237 639.069 189.49C639.322 189.743 639.465 190.087 639.465 190.445L639.445 207.523Z" fill="#F2F2F2"/>
<path d="M267.215 18.2595L251.691 28.1038L261.113 10.9563C258.445 8.82709 255.144 7.64784 251.731 7.6048H251.481C250.402 7.62095 249.324 7.54059 248.26 7.36469L242.999 10.6962L245.249 6.59435C241.518 5.29316 238.296 2.8411 236.047 -0.408712L226.635 5.59391L232.576 -5.22083C227.075 -11.8337 219.653 -15.8855 211.481 -15.8855C201.689 -15.8855 192.967 -10.0629 187.335 -0.988968C185.67 1.73562 183.31 3.96828 180.498 5.48017C177.686 6.99205 174.522 7.72877 171.331 7.6148H170.811C159.999 7.6148 151.237 19.8802 151.237 34.9968C151.237 50.1134 160.039 62.3888 170.851 62.3888C173.227 62.3765 175.564 61.7895 177.663 60.6781C181.343 58.8872 185.368 57.9185 189.46 57.839C193.552 57.7595 197.612 58.5713 201.359 60.2179C204.527 61.6357 207.96 62.3686 211.431 62.3686C214.902 62.3686 218.335 61.6357 221.504 60.2179C225.22 58.6056 229.241 57.8122 233.291 57.8916C237.342 57.971 241.328 58.9214 244.979 60.6781C247.061 61.7802 249.376 62.3668 251.731 62.3888C262.543 62.3888 271.306 50.1234 271.306 34.9968C271.37 29.1625 269.963 23.4061 267.215 18.2595Z" fill="#F2F2F2"/>
<path opacity="0.03" d="M237.957 58.327C232.309 57.2513 226.469 57.8853 221.183 60.1477C218.016 61.5623 214.585 62.2934 211.116 62.2934C207.647 62.2934 204.216 61.5623 201.049 60.1477C197.301 58.5057 193.241 57.6966 189.15 57.776C185.059 57.8555 181.034 58.8217 177.353 60.608C175.252 61.7251 172.91 62.3124 170.531 62.3187C160.929 62.3187 152.937 52.6445 151.276 39.8789C153.196 38.4771 154.826 36.7174 156.078 34.6966C161.709 25.6226 170.431 19.8 180.223 19.8C190.016 19.8 198.628 25.5526 204.229 34.5365C205.907 37.2499 208.257 39.483 211.053 41.0186C213.849 42.5543 216.994 43.3404 220.183 43.3004H220.433C228.115 43.2503 234.737 49.383 237.957 58.327Z" fill="black"/>
<path d="M814.327 -8.96253L806.565 -4.05038L811.266 -12.6041C809.934 -13.6652 808.287 -14.2529 806.585 -14.2749H806.465C805.925 -14.2643 805.386 -14.3045 804.854 -14.3949L802.234 -12.7242L803.354 -14.7251C801.497 -15.3764 799.891 -16.5941 798.763 -18.2066L794.072 -15.2053L797.073 -20.5976C795.834 -22.2251 794.247 -23.555 792.428 -24.4897C790.609 -25.4245 788.604 -25.9405 786.56 -26C781.679 -26 777.328 -23.0887 774.557 -18.5667C773.723 -17.2063 772.543 -16.092 771.137 -15.3378C769.731 -14.5837 768.15 -14.2168 766.555 -14.2749H766.295C760.904 -14.2749 756.533 -8.16218 756.533 -0.618876C756.533 6.92443 760.904 13.0371 766.295 13.0371C767.481 13.0333 768.648 12.7415 769.696 12.1868C771.531 11.295 773.537 10.8125 775.577 10.7728C777.617 10.733 779.641 11.137 781.509 11.9566C783.09 12.6626 784.803 13.0275 786.535 13.0275C788.267 13.0275 789.98 12.6626 791.561 11.9566C793.416 11.1539 795.422 10.759 797.443 10.7987C799.463 10.8384 801.452 11.3118 803.274 12.1868C804.311 12.7294 805.464 13.0142 806.635 13.0171C812.026 13.0171 816.397 6.90443 816.397 -0.638882C816.413 -3.54283 815.701 -6.40445 814.327 -8.96253Z" fill="#F2F2F2"/>
<path opacity="0.03" d="M799.733 11.0163C796.914 10.4861 794.001 10.8029 791.361 11.9267C789.787 12.6271 788.083 12.9884 786.36 12.9871C784.636 12.9783 782.933 12.6103 781.359 11.9067C779.489 11.0868 777.463 10.6828 775.422 10.7225C773.381 10.7622 771.372 11.2448 769.536 12.1368C768.488 12.6926 767.321 12.9845 766.135 12.9871C761.344 12.9871 757.363 8.16502 756.533 1.79223C757.491 1.09346 758.306 0.217222 758.933 -0.788907C761.734 -5.31089 766.085 -8.22217 770.936 -8.22217C775.787 -8.22217 780.118 -5.35091 782.939 -0.868943C783.78 0.490911 784.959 1.60888 786.362 2.37532C787.765 3.14176 789.343 3.53035 790.941 3.50298H791.071C794.822 3.50298 798.123 6.56431 799.733 11.0163Z" fill="black"/>
<path d="M619.97 81.0068L610.868 86.7794L616.389 76.775C614.829 75.5137 612.893 74.8095 610.888 74.7741H610.738C610.105 74.783 609.472 74.7361 608.847 74.6341L605.766 76.6349L607.087 74.2239C604.901 73.4622 603.011 72.0303 601.685 70.1321L596.164 73.6336L599.655 67.2908C598.187 65.3936 596.315 63.8472 594.174 62.764C592.034 61.6807 589.68 61.0877 587.282 61.0281C581.541 61.0281 576.419 64.4496 573.119 69.7719C572.138 71.3579 570.756 72.6561 569.111 73.5347C567.467 74.4132 565.619 74.8409 563.756 74.7741H563.446C557.105 74.7741 551.973 81.9673 551.973 90.7811C551.973 99.595 557.105 106.838 563.446 106.838C564.841 106.836 566.215 106.492 567.447 105.838C569.605 104.789 571.965 104.222 574.364 104.175C576.763 104.128 579.143 104.604 581.341 105.568C583.2 106.395 585.212 106.823 587.247 106.823C589.282 106.823 591.294 106.395 593.153 105.568C595.334 104.623 597.693 104.158 600.069 104.205C602.446 104.251 604.784 104.808 606.927 105.838C608.161 106.488 609.533 106.831 610.928 106.838C617.269 106.838 622.41 99.655 622.41 90.7811C622.426 87.3702 621.587 84.0098 619.97 81.0068Z" fill="#F2F2F2"/>
<path opacity="0.03" d="M602.816 104.507C599.501 103.88 596.075 104.252 592.973 105.578C591.114 106.405 589.102 106.833 587.067 106.833C585.032 106.833 583.02 106.405 581.16 105.578C578.963 104.614 576.583 104.138 574.184 104.185C571.785 104.232 569.425 104.799 567.267 105.848C566.034 106.501 564.661 106.845 563.266 106.848C557.635 106.848 552.944 101.176 551.973 93.6924C553.095 92.8821 554.049 91.863 554.784 90.6911C558.085 85.3688 563.206 81.9573 568.948 81.9573C574.689 81.9573 579.75 85.3288 583.051 90.5911C584.033 92.1834 585.41 93.4941 587.049 94.3954C588.688 95.2966 590.533 95.7576 592.403 95.7333H592.513C597.034 95.6633 600.925 99.2649 602.816 104.507Z" fill="black"/>
<path d="M947.479 543.45C947.479 545.171 947.479 546.891 947.369 548.592C947.113 555.212 946.317 561.8 944.988 568.291C938.417 600.415 919.442 625.386 895.606 632.759C890.865 634.236 885.929 634.988 880.963 634.99C844.224 634.99 814.447 593.972 814.447 543.45C814.447 492.928 844.224 451.91 880.963 451.91C915.421 451.91 943.768 487.985 947.139 534.196C947.369 537.237 947.479 540.328 947.479 543.45Z" fill="#36334A"/>
<path opacity="0.1" d="M947.369 548.602C947.113 555.222 946.317 561.81 944.988 568.301C938.417 600.425 919.442 625.396 895.606 632.769C877.152 624.275 863.458 592.441 863.458 554.464C863.458 509.985 882.263 473.929 905.469 473.929C924.943 473.929 941.327 499.36 946.078 533.865C946.739 538.598 947.169 543.54 947.369 548.602Z" fill="black"/>
<path d="M613.398 340.861C613.398 340.861 793.442 303.845 888.465 337.859C888.465 337.859 902.468 344.863 888.465 356.868C888.465 356.868 901.708 370.874 878.582 375.876L786.71 381.529L613.398 363.871V340.861Z" fill="#3F3D56"/>
<path opacity="0.1" d="M644.906 345.513C644.906 345.513 799.053 313.819 880.413 342.942C880.413 342.942 892.416 348.944 880.413 359.219C880.413 359.219 891.745 371.224 871.951 375.496L793.292 380.328L644.906 365.232V345.513Z" fill="black"/>
<path d="M820.448 400.887L808.445 376.877C808.445 376.877 813.706 352.586 770.936 345.443C768.566 334.848 757.823 326.855 744.93 326.855C732.347 326.855 721.824 334.458 719.104 344.663C712.962 345.193 706.421 345.913 699.419 346.864L689.636 399.326L688.416 396.885C688.416 396.885 694.628 368.193 638.644 364.001C641.696 360.301 643.378 355.662 643.405 350.865C643.405 338.15 631.532 327.855 616.899 327.855C602.265 327.855 590.393 338.15 590.393 350.865C590.431 356.089 592.414 361.111 595.954 364.951C590.719 365.452 585.198 366.092 579.39 366.872L568.387 425.898L619.4 432.901L700.419 420.896L693.247 406.54L739.429 412.882L820.448 400.887Z" fill="#6C63FF"/>
<path opacity="0.2" d="M820.448 400.887L808.445 376.877C808.445 376.877 813.706 352.586 770.936 345.443C768.566 334.848 757.823 326.855 744.93 326.855C732.347 326.855 721.824 334.458 719.104 344.663C712.962 345.193 706.421 345.913 699.419 346.864L689.636 399.326L688.416 396.885C688.416 396.885 694.628 368.193 638.644 364.001C641.696 360.301 643.378 355.662 643.405 350.865C643.405 338.15 631.532 327.855 616.899 327.855C602.265 327.855 590.393 338.15 590.393 350.865C590.431 356.089 592.414 361.111 595.954 364.951C590.719 365.452 585.198 366.092 579.39 366.872L568.387 425.898L619.4 432.901L700.419 420.896L693.247 406.54L739.429 412.882L820.448 400.887Z" fill="black"/>
<path d="M648.387 347.744C648.387 347.744 640.385 302.844 677.394 301.844C714.403 300.843 702.4 366.872 702.4 366.872C702.4 366.872 730.407 372.875 732.407 383.88C734.407 394.885 635.384 397.886 635.384 397.886L648.387 347.744Z" fill="#6C63FF"/>
<path d="M583.391 584.968C583.391 637.991 543.981 681.01 495.37 681.01C446.758 681.01 407.348 637.991 407.348 584.968C407.348 531.945 447.248 480.422 495.87 480.422C544.492 480.422 583.391 531.925 583.391 584.968Z" fill="#36334A"/>
<path opacity="0.1" d="M495.37 669.995C534.039 669.995 565.387 633.719 565.387 588.97C565.387 544.22 534.039 507.944 495.37 507.944C456.7 507.944 425.353 544.22 425.353 588.97C425.353 633.719 456.7 669.995 495.37 669.995Z" fill="black"/>
<path d="M108.276 671.996C156.889 671.996 196.297 628.997 196.297 575.954C196.297 522.911 156.889 479.912 108.276 479.912C59.6633 479.912 20.2549 522.911 20.2549 575.954C20.2549 628.997 59.6633 671.996 108.276 671.996Z" fill="#36334A"/>
<path d="M258.312 346.864C258.312 346.864 217.302 348.864 219.303 370.874C221.303 392.884 254.311 376.877 254.311 376.877L258.312 346.864Z" fill="#36334A"/>
<path d="M599.515 383.53L616.399 270.83C616.399 270.83 620.4 256.824 566.387 256.824C566.387 256.824 393.345 245.819 349.334 263.827C349.334 263.827 298.322 282.835 227.305 380.878C227.305 380.878 592.513 389.532 599.515 383.53Z" fill="#3F3D56"/>
<path d="M593.393 265.828L562.386 388.882L542.941 388.412L450.919 386.171L245.679 381.168C245.109 371.444 342.303 270.83 342.303 270.83L593.393 265.828Z" fill="#36334A"/>
<path opacity="0.2" d="M450.949 386.171L459.331 353.757C459.331 353.757 451.329 308.847 488.338 307.846C525.347 306.846 513.344 372.875 513.344 372.875C513.344 372.875 538.85 378.347 542.911 388.412L450.949 386.171Z" fill="#6C63FF"/>
<path d="M947.979 536.447C941.978 478.421 904.469 465.916 904.469 465.916C868.46 463.915 844.454 600.975 844.454 600.975L567.387 625.986C567.387 625.986 576.889 509.435 509.873 490.426C442.857 471.418 425.353 607.978 422.352 626.986C419.351 645.995 18.2544 624.985 7.25175 616.982C-3.75091 608.978 0.25006 531.945 3.25079 525.942C6.25151 519.939 14.2534 492.927 14.2534 492.927C14.2534 486.485 17.3342 478.341 19.8948 472.689C21.6952 468.687 23.2556 465.916 23.2556 465.916C31.9477 416.614 77.0786 404.679 80.1094 403.888H80.2694C92.2723 391.883 203.299 383.88 203.299 383.88L245.309 375.876L586.862 382.589L601.395 382.879L775.037 374.526L892.466 368.873C919.472 368.873 933.476 436.903 933.476 436.903C958.482 496.929 947.979 536.447 947.979 536.447Z" fill="#3F3D56"/>
<path opacity="0.1" d="M384.889 477.527C411.272 466.909 427.271 444.908 420.624 428.388C413.978 411.867 387.202 407.082 360.82 417.701C334.437 428.319 318.438 450.32 325.085 466.841C331.731 483.361 358.507 488.146 384.889 477.527Z" fill="black"/>
<path d="M382.89 473.521C409.273 462.903 425.272 440.902 418.625 424.382C411.978 407.861 385.203 403.077 358.821 413.695C332.438 424.314 316.439 446.314 323.085 462.835C329.732 479.355 356.507 484.14 382.89 473.521Z" fill="#F2F2F2"/>
<path opacity="0.1" d="M82.1098 405.929C81.5997 416.934 76.6685 430.82 67.7964 444.196C53.5229 465.726 33.9482 478.401 21.8953 474.69C23.6957 470.688 25.2561 467.917 25.2561 467.917C33.9482 418.615 79.0791 406.68 82.1098 405.929Z" fill="black"/>
<path d="M79.1091 403.928C78.599 414.933 73.6678 428.819 64.7956 442.195C50.5222 463.725 30.9474 476.4 18.8945 472.689C20.695 468.687 22.2553 465.916 22.2553 465.916C30.9474 416.614 76.0784 404.679 79.1091 403.928Z" fill="#F2F2F2"/>
<path d="M219.303 433.892H140.284L136.283 422.887H232.306L219.303 433.892Z" fill="#36334A"/>
<path d="M201.299 514.927H71.2672V552.944H201.299V514.927Z" fill="#36334A"/>
<path opacity="0.1" d="M341.332 589.96C351.276 589.96 359.337 581.898 359.337 571.952C359.337 562.007 351.276 553.944 341.332 553.944C331.389 553.944 323.328 562.007 323.328 571.952C323.328 581.898 331.389 589.96 341.332 589.96Z" fill="black"/>
<path d="M339.332 586.959C349.276 586.959 357.336 578.896 357.336 568.951C357.336 559.005 349.276 550.943 339.332 550.943C329.388 550.943 321.328 559.005 321.328 568.951C321.328 578.896 329.388 586.959 339.332 586.959Z" fill="#F2F2F2"/>
<path opacity="0.1" d="M14.2534 576.954C19.2252 576.954 23.2556 568.444 23.2556 557.946C23.2556 547.448 19.2252 538.938 14.2534 538.938C9.28163 538.938 5.25122 547.448 5.25122 557.946C5.25122 568.444 9.28163 576.954 14.2534 576.954Z" fill="black"/>
<path d="M11.2527 575.954C16.2244 575.954 20.2548 567.444 20.2548 556.946C20.2548 546.448 16.2244 537.937 11.2527 537.937C6.2809 537.937 2.25049 546.448 2.25049 556.946C2.25049 567.444 6.2809 575.954 11.2527 575.954Z" fill="#F2F2F2"/>
<path d="M804.444 476.921C793.442 510.935 792.441 563.959 792.441 563.959L788.44 577.965L593.393 599.975C593.393 599.975 594.394 501.932 597.394 455.911C599.505 423.447 591.673 395.965 586.862 382.589L601.395 382.879L775.037 374.526C804.044 394.865 814.317 446.377 804.444 476.921Z" fill="#36334A"/>
<path d="M759.974 415.594C759.291 415.639 758.625 415.827 758.019 416.145C757.413 416.462 756.88 416.904 756.454 417.439C756.028 417.975 755.719 418.594 755.547 419.257C755.374 419.919 755.342 420.61 755.453 421.286C755.547 421.852 755.779 422.385 756.128 422.84C756.477 423.296 756.932 423.658 757.453 423.897C760.684 425.508 782.189 421.896 790.341 420.456C791.548 420.26 792.656 419.67 793.492 418.778C794.328 417.885 794.845 416.741 794.962 415.523C795.062 414.103 794.542 412.892 792.462 412.892L759.974 415.594Z" fill="#F2F2F2"/>
<path d="M586.392 378.878C586.392 378.878 591.393 400.887 615.399 393.884L623.401 362.871L607.397 353.867L586.392 378.878Z" fill="#36334A"/>
<path d="M615.789 334.188C626.791 327.665 644.246 321.963 661.51 335.659C665.103 338.496 667.638 342.461 668.707 346.914C669.775 351.366 669.315 356.049 667.401 360.209C661.75 372.445 648.337 385.721 617.019 369.824C613.945 368.263 611.321 365.942 609.397 363.081L609.237 362.841C607.722 360.549 606.687 357.973 606.196 355.269C605.705 352.565 605.768 349.79 606.381 347.112C606.993 344.433 608.143 341.906 609.76 339.685C611.377 337.464 613.428 335.594 615.789 334.188Z" fill="#36334A"/>
<path d="M495.87 604.466C506.918 604.466 515.875 595.508 515.875 584.458C515.875 573.407 506.918 564.449 495.87 564.449C484.821 564.449 475.865 573.407 475.865 584.458C475.865 595.508 484.821 604.466 495.87 604.466Z" fill="#F2F2F2"/>
<path d="M908.969 568.451C915.046 568.451 919.972 559.492 919.972 548.442C919.972 537.391 915.046 528.433 908.969 528.433C902.893 528.433 897.967 537.391 897.967 548.442C897.967 559.492 902.893 568.451 908.969 568.451Z" fill="#F2F2F2"/>
<path d="M496.37 522.931H494.369C487.74 522.931 482.366 528.306 482.366 534.936V545.941C482.366 552.571 487.74 557.946 494.369 557.946H496.37C502.999 557.946 508.373 552.571 508.373 545.941V534.936C508.373 528.306 502.999 522.931 496.37 522.931Z" fill="#36334A"/>
<path d="M908.969 484.414C909.889 484.414 910.799 484.595 911.649 484.947C912.498 485.299 913.27 485.815 913.92 486.465C914.571 487.115 915.086 487.887 915.438 488.737C915.79 489.587 915.971 490.497 915.971 491.417V507.424C915.971 510.608 914.707 513.662 912.456 515.913C910.205 518.164 907.152 519.429 903.968 519.429C902.111 519.429 900.33 518.691 899.017 517.378C897.704 516.065 896.967 514.283 896.967 512.426V496.419C896.967 493.235 898.231 490.182 900.482 487.93C902.733 485.679 905.786 484.414 908.969 484.414Z" fill="#36334A"/>
<path d="M908.969 612.48C905.786 612.48 902.733 611.215 900.482 608.964C898.231 606.712 896.967 603.659 896.967 600.475V589.47C896.967 586.286 898.231 583.232 900.482 580.981C902.733 578.729 905.786 577.465 908.969 577.465C915.571 577.465 914.971 582.867 914.971 589.47V600.475C914.961 607.078 915.591 612.48 908.969 612.48Z" fill="#36334A"/>
<path d="M878.962 530.434C882.146 530.434 885.199 531.699 887.45 533.95C889.701 536.202 890.965 539.255 890.965 542.439V557.446C890.965 559.569 890.122 561.604 888.622 563.105C887.121 564.606 885.086 565.449 882.963 565.449C879.78 565.449 876.727 564.185 874.476 561.933C872.225 559.682 870.96 556.628 870.96 553.444V538.438C870.96 536.315 871.804 534.279 873.304 532.778C874.805 531.277 876.84 530.434 878.962 530.434Z" fill="#36334A"/>
<path d="M947.479 543.45C947.479 545.17 947.479 546.891 947.369 548.592C947.113 555.212 946.317 561.8 944.988 568.291C944.327 568.402 943.658 568.459 942.988 568.461C939.804 568.461 936.751 567.196 934.5 564.944C932.249 562.693 930.985 559.639 930.985 556.455V545.451C930.985 542.267 932.249 539.213 934.5 536.962C936.751 534.71 939.804 533.445 942.988 533.445C944.035 533.443 945.078 533.581 946.089 533.856C946.449 533.956 946.809 534.066 947.149 534.196C947.369 537.237 947.479 540.328 947.479 543.45Z" fill="#36334A"/>
<path d="M546.882 565.449H544.882C538.253 565.449 532.879 570.824 532.879 577.454V588.459C532.879 595.09 538.253 600.465 544.882 600.465H546.882C553.511 600.465 558.885 595.09 558.885 588.459V577.454C558.885 570.824 553.511 565.449 546.882 565.449Z" fill="#36334A"/>
<path d="M448.858 565.449H446.858C440.229 565.449 434.855 570.824 434.855 577.454V588.459C434.855 595.09 440.229 600.465 446.858 600.465H448.858C455.487 600.465 460.861 595.09 460.861 588.459V577.454C460.861 570.824 455.487 565.449 448.858 565.449Z" fill="#36334A"/>
<path d="M496.87 617.472H494.87C488.241 617.472 482.867 622.847 482.867 629.477V640.482C482.867 647.113 488.241 652.488 494.87 652.488H496.87C503.499 652.488 508.873 647.113 508.873 640.482V629.477C508.873 622.847 503.499 617.472 496.87 617.472Z" fill="#36334A"/>
<path d="M845.214 180.1C845.208 182.009 844.87 183.901 844.214 185.693C843.073 188.877 840.988 191.637 838.237 193.604C835.485 195.57 832.199 196.649 828.818 196.697C825.436 196.745 822.121 195.759 819.315 193.871C816.509 191.984 814.347 189.284 813.116 186.133C812.362 184.222 811.975 182.185 811.976 180.13C811.976 175.726 813.725 171.502 816.839 168.387C819.953 165.273 824.176 163.523 828.58 163.523C832.984 163.523 837.207 165.273 840.321 168.387C843.435 171.502 845.184 175.726 845.184 180.13L845.214 180.1Z" fill="#FF6584"/>
<path d="M815.347 184.242C814.289 182.335 813.617 180.238 813.369 178.072C813.121 175.905 813.302 173.71 813.902 171.614C814.502 169.517 815.509 167.559 816.866 165.851C818.222 164.144 819.902 162.72 821.809 161.662C823.661 160.613 825.699 159.933 827.81 159.661C825.522 159.58 823.242 159.973 821.114 160.815C818.985 161.657 817.053 162.931 815.44 164.555C813.827 166.18 812.567 168.12 811.74 170.255C810.912 172.39 810.535 174.673 810.632 176.961C810.729 179.248 811.298 181.491 812.302 183.548C813.307 185.606 814.727 187.433 816.471 188.915C818.216 190.397 820.248 191.503 822.441 192.162C824.633 192.821 826.938 193.02 829.21 192.746C826.364 192.638 823.594 191.798 821.166 190.309C818.738 188.82 816.734 186.73 815.347 184.242Z" fill="#FF6584"/>
<path d="M852.336 203.23H807.855V272.631H852.336V203.23Z" fill="#FF6584"/>
<path opacity="0.1" d="M853.336 201.23H808.855V270.63H853.336V201.23Z" fill="black"/>
<path d="M737.548 455.021C737.548 455.021 732.807 468.027 721.544 469.848C710.282 471.668 703.78 474.57 703.78 474.57L730.466 491.767L744.7 489.986C744.7 489.986 746.47 471.598 752.402 467.446C758.333 463.295 737.548 455.021 737.548 455.021Z" fill="#FBBEBE"/>
<path d="M930.315 455.021C930.315 455.021 935.056 468.027 946.319 469.847C957.581 471.668 964.103 474.6 964.103 474.6L937.416 491.797L923.183 490.016C923.183 490.016 921.413 471.628 915.481 467.476C909.55 463.325 930.315 455.021 930.315 455.021Z" fill="#FBBEBE"/>
<path d="M800.443 339.95C800.443 339.95 793.322 343.512 790.951 350.625C790.951 350.625 777.948 354.777 770.786 366.052C770.786 366.052 761.894 375.536 760.704 380.288C759.514 385.04 745.88 413.543 745.88 413.543C745.88 413.543 732.247 458.022 725.125 462.774C725.125 462.774 747.661 458.022 751.812 480.562C751.812 480.562 757.153 480.562 763.084 459.803C769.016 439.044 783.239 413.543 783.239 413.543C783.239 413.543 787.99 395.745 792.141 392.784C796.292 389.822 802.814 376.176 808.745 379.728C814.677 383.279 853.816 379.138 853.816 379.138C853.816 379.138 876.942 389.812 877.532 396.935C878.122 404.059 882.283 404.639 882.873 410.571C883.463 416.504 905.409 463.365 905.409 463.365C905.409 463.365 909.56 476.37 910.74 479.372C910.74 479.372 923.793 447.938 940.987 465.726C940.987 465.726 940.397 453.86 935.056 446.717C929.715 439.574 906.589 383.84 906.589 383.84C906.589 383.84 904.218 375.536 901.848 373.165C899.477 370.794 881.093 351.816 874.581 351.816C874.581 351.816 871.02 342.912 866.869 341.731L800.443 339.95Z" fill="#696880"/>
<path d="M747.07 485.864C742.437 487.725 737.4 488.353 732.451 487.686C727.502 487.02 722.811 485.083 718.834 482.063C714.969 479.097 710.736 476.645 706.241 474.77C699.959 472.229 692.427 470.338 690.137 474.6C685.986 482.303 740.549 501.291 740.549 501.291C740.549 501.291 747.661 497.129 747.07 485.864Z" fill="#696880"/>
<path d="M920.822 485.864C925.456 487.725 930.493 488.353 935.442 487.686C940.39 487.02 945.082 485.083 949.059 482.063C952.924 479.097 957.157 476.645 961.652 474.77C967.934 472.229 975.466 470.338 977.756 474.6C981.907 482.303 927.344 501.291 927.344 501.291C927.344 501.291 920.232 497.129 920.822 485.864Z" fill="#696880"/>
<path d="M819.828 242.388C819.598 244.449 818.928 246.68 817.167 247.78C815.727 248.68 813.907 248.6 812.246 248.951C810.501 249.383 808.883 250.221 807.522 251.396C806.162 252.571 805.097 254.05 804.414 255.713C803.086 259.071 802.828 262.758 803.674 266.268C804.062 267.991 804.566 269.686 805.185 271.34C806.935 276.262 809.036 281.135 812.276 285.236C815.051 288.486 818.17 291.424 821.579 294C823.689 295.721 825.87 297.482 828.47 298.292C830.236 298.759 832.055 298.998 833.882 299.002C836.132 299.113 838.523 299.183 840.473 298.062C843.474 296.331 844.374 292.5 845.994 289.438C847.385 286.827 849.445 284.626 850.736 281.965C851.649 279.878 852.32 277.692 852.736 275.452L855.507 263.137C856.507 258.675 857.427 253.633 854.907 249.801C854.73 249.485 854.475 249.219 854.166 249.031C853.688 248.836 853.165 248.781 852.656 248.87C849.466 249.085 846.284 248.358 843.504 246.78C843.063 246.561 842.672 246.254 842.354 245.879C841.945 245.246 841.701 244.52 841.643 243.768C841.373 242.24 840.944 240.745 840.363 239.306C840.198 238.793 839.897 238.333 839.493 237.976C839.071 237.709 838.59 237.548 838.093 237.506C833.811 236.807 829.493 236.353 825.159 236.145C823.729 236.085 821.589 235.515 820.618 236.765C819.648 238.016 819.988 240.887 819.828 242.388Z" fill="#FBBEBE"/>
<path opacity="0.1" d="M819.828 242.388C819.598 244.449 818.928 246.68 817.167 247.78C815.727 248.68 813.907 248.6 812.246 248.951C810.501 249.383 808.883 250.221 807.522 251.396C806.162 252.571 805.097 254.05 804.414 255.713C803.086 259.071 802.828 262.758 803.674 266.268C804.062 267.991 804.566 269.686 805.185 271.34C806.935 276.262 809.036 281.135 812.276 285.236C815.051 288.486 818.17 291.424 821.579 294C823.689 295.721 825.87 297.482 828.47 298.292C830.236 298.759 832.055 298.998 833.882 299.002C836.132 299.113 838.523 299.183 840.473 298.062C843.474 296.331 844.374 292.5 845.994 289.438C847.385 286.827 849.445 284.626 850.736 281.965C851.649 279.878 852.32 277.692 852.736 275.452L855.507 263.137C856.507 258.675 857.427 253.633 854.907 249.801C854.73 249.485 854.475 249.219 854.166 249.031C853.688 248.836 853.165 248.781 852.656 248.87C849.466 249.085 846.284 248.358 843.504 246.78C843.063 246.561 842.672 246.254 842.354 245.879C841.945 245.246 841.701 244.52 841.643 243.768C841.373 242.24 840.944 240.745 840.363 239.306C840.198 238.793 839.897 238.333 839.493 237.976C839.071 237.709 838.59 237.548 838.093 237.506C833.811 236.807 829.493 236.353 825.159 236.145C823.729 236.085 821.589 235.515 820.618 236.765C819.648 238.016 819.988 240.887 819.828 242.388Z" fill="black"/>
<path d="M811.796 249.471C809.476 248.78 807.074 248.4 804.654 248.34C798.933 248.2 792.821 250.181 789.511 254.853C787.27 258.221 786.447 262.337 787.22 266.308C788.021 270.25 789.811 273.923 792.421 276.983C793.931 278.588 795.272 280.345 796.422 282.225C798.003 285.226 798.043 288.808 798.423 292.229C799.423 300.343 802.884 307.986 804.264 316.05C805.645 324.113 804.444 333.478 798.073 338.62C797.002 339.48 795.712 340.381 795.622 341.751C795.472 343.942 798.323 344.883 800.513 345.083C807.065 345.713 813.787 346.323 820.148 344.632C822.789 343.932 825.319 342.842 828 342.341C834.812 341.071 841.653 343.672 848.455 344.933C853.385 345.741 858.373 346.146 863.368 346.143C864.535 346.247 865.709 346.093 866.809 345.693C867.353 345.48 867.814 345.099 868.127 344.606C868.44 344.114 868.588 343.534 868.55 342.952C868.332 342.195 867.926 341.507 867.369 340.951C863.929 336.689 862.878 331.046 861.938 325.654L858.837 307.496C857.147 297.812 855.577 287.297 860.158 278.593C863.459 272.341 869.52 267.939 873.001 261.786C874.232 259.924 874.789 257.696 874.581 255.473C874.061 252.382 871.27 250.171 868.41 248.87C862.913 246.412 856.676 246.186 851.016 248.24C851.116 252.572 850.015 256.954 849.295 261.246L848.085 268.249C847.471 272.376 846.569 276.454 845.384 280.454C844.944 282.051 844.208 283.551 843.214 284.876C842.146 286.064 840.841 287.015 839.383 287.667C836.222 289.212 832.747 290.003 829.23 289.978C827.709 290.009 826.193 289.779 824.749 289.298C822.369 288.438 820.438 286.667 818.578 284.946C817.966 284.426 817.419 283.835 816.947 283.185C816.457 282.35 816.083 281.451 815.837 280.514C815.027 278.068 814.392 275.567 813.937 273.031C813.626 271.09 813.536 269.119 813.396 267.158C812.956 261.476 812.966 255.043 811.796 249.471Z" fill="#F2F2F2"/>
<path d="M805.775 364.271C805.775 364.271 803.404 395.705 818.228 401.047C833.051 406.39 820.008 374.946 820.008 374.946L815.267 365.452L805.775 364.271Z" fill="#FBBEBE"/>
<path d="M856.187 364.271C856.187 364.271 858.557 395.705 843.734 401.047C828.91 406.39 841.953 374.946 841.953 374.946L846.694 365.452L856.187 364.271Z" fill="#FBBEBE"/>
<path opacity="0.1" d="M792.731 259.285L787.99 266.998C787.99 266.998 792.141 293.69 792.731 298.432C793.239 301.847 794.032 305.214 795.102 308.497C795.102 308.497 795.692 322.733 795.692 328.065C795.692 333.397 798.693 342.301 798.693 342.301C799.109 347.344 800.116 352.32 801.694 357.128C804.064 363.661 806.445 371.364 806.445 371.364C806.445 371.364 809.445 363.061 821.268 375.516C822.59 374.171 823.331 372.36 823.331 370.474C823.331 368.588 822.59 366.777 821.268 365.432C821.268 365.432 817.707 349.425 817.707 341.121C817.707 332.817 811.186 293.1 811.186 293.1C811.186 293.1 806.965 248.01 792.731 259.285Z" fill="black"/>
<path d="M791.561 258.695L786.82 266.398C786.82 266.398 790.971 293.09 791.561 297.842C792.074 301.261 792.87 304.63 793.942 307.917C793.942 307.917 794.562 322.153 794.562 327.505C794.562 332.857 797.563 341.741 797.563 341.741C797.981 346.784 798.988 351.76 800.563 356.568C802.934 363.091 805.304 370.804 805.304 370.804C805.304 370.804 808.305 362.5 820.128 374.956C821.452 373.612 822.195 371.801 822.195 369.914C822.195 368.027 821.452 366.215 820.128 364.872C820.128 364.872 816.567 348.865 816.567 340.551C816.567 332.237 810.046 292.53 810.046 292.53C810.046 292.53 805.775 247.47 791.561 258.695Z" fill="#F2F2F2"/>
<path opacity="0.1" d="M869.82 254.533L872.821 258.065C872.821 258.065 876.322 278.263 868.61 303.765L866.239 326.905C866.239 326.905 862.088 346.473 861.488 351.225C860.888 355.978 860.898 356.558 859.718 358.339C859.355 358.754 859.155 359.287 859.155 359.839C859.155 360.391 859.355 360.924 859.718 361.34L856.157 374.396C856.157 374.396 850.815 367.873 840.153 376.176C840.153 376.176 837.152 371.424 839.563 367.272C841.973 363.121 841.933 361.34 841.343 360.159C840.753 358.979 843.714 353.036 843.714 351.856C843.714 350.675 847.865 323.383 847.865 323.383C847.865 323.383 849.645 296.692 851.426 287.798C852.516 282.325 852.486 270.12 852.306 261.536C852.116 252.602 862.928 247.75 869.31 254.043C869.48 254.173 869.65 254.353 869.82 254.533Z" fill="black"/>
<path d="M871.58 253.352L874.581 256.884C874.581 256.884 878.072 277.073 870.37 302.584L868 325.714C868 325.714 863.849 345.293 863.248 350.035C862.648 354.777 862.658 355.377 861.468 357.148C861.111 357.566 860.915 358.098 860.915 358.649C860.915 359.199 861.111 359.731 861.468 360.149L857.917 373.155C857.917 373.155 852.576 366.632 841.913 374.936C841.913 374.936 838.913 370.194 841.323 366.042C843.734 361.89 843.694 360.109 843.094 358.919C842.493 357.728 845.474 351.806 845.474 350.615C845.474 349.425 849.625 322.143 849.625 322.143C849.625 322.143 851.406 295.451 853.176 286.557C854.946 277.663 853.776 250.971 853.776 250.971C853.776 250.971 863.298 244.469 871.58 253.352Z" fill="#F2F2F2"/>
<path d="M831.871 245.049C844.974 245.049 855.597 234.424 855.597 221.319C855.597 208.213 844.974 197.588 831.871 197.588C818.768 197.588 808.145 208.213 808.145 221.319C808.145 234.424 818.768 245.049 831.871 245.049Z" fill="#FBBEBE"/>
<path opacity="0.1" d="M844.244 185.693C843.103 188.877 841.018 191.637 838.267 193.603C835.515 195.57 832.229 196.649 828.848 196.697C825.467 196.745 822.151 195.759 819.345 193.871C816.539 191.983 814.377 189.284 813.146 186.133C822.399 182.411 831.871 185.733 831.871 185.733C836.572 184.062 840.693 184.222 844.244 185.693Z" fill="black"/>
<path d="M831.871 186.923C831.871 186.923 786.21 170.916 797.473 248.61C797.473 248.61 807.555 255.133 815.267 250.981C815.267 250.981 809.926 196.958 830.681 199.379C851.436 201.8 847.885 249.791 847.885 249.791C847.885 249.791 859.748 253.352 863.298 246.79C866.849 240.227 862.118 176.239 831.871 186.923Z" fill="#FF6584"/>
<path opacity="0.1" d="M830.681 195.817C816.437 194.186 814.487 219.087 814.677 234.884C814.857 219.187 817.497 197.868 830.681 199.379C845.504 201.07 847.925 226.04 848.105 240.187C848.265 227.211 846.844 197.668 830.681 195.817Z" fill="black"/>
<path opacity="0.1" d="M797.473 245.049C796.443 238.231 795.852 231.354 795.702 224.46C795.653 232.531 796.245 240.593 797.473 248.571C797.473 248.571 807.555 255.093 815.267 250.942C815.267 250.942 815.137 249.661 814.997 247.51C807.325 251.472 797.473 245.049 797.473 245.049Z" fill="black"/>
<path opacity="0.1" d="M863.298 243.268C859.988 249.341 849.475 246.68 848.045 246.269C847.975 248.47 847.885 249.781 847.885 249.781C847.885 249.781 859.748 253.343 863.298 246.78C864.039 245.429 864.419 241.637 864.299 236.565C864.199 239.877 863.849 242.258 863.298 243.268Z" fill="black"/>
<path d="M984.898 627.177C987.639 622.104 984.528 615.882 980.957 611.36C977.386 606.838 973.025 602.126 973.115 596.353C973.255 588.069 982.047 583.177 989.119 578.785C994.335 575.523 999.146 571.654 1003.45 567.26C1005.25 565.567 1006.74 563.573 1007.85 561.368C1009.3 558.126 1009.26 554.435 1009.17 550.883C1008.87 539.058 1008.29 527.243 1007.42 515.438" stroke="#3F3D56" stroke-width="4" stroke-miterlimit="10"/>
<path d="M1020.73 514.797C1020.63 512.631 1019.98 510.525 1018.86 508.674C1017.73 506.822 1016.15 505.284 1014.28 504.202L1011.38 509.925L1011.47 502.992C1010.09 502.588 1008.65 502.416 1007.21 502.482C1004.66 502.601 1002.2 503.475 1000.14 504.993C998.088 506.51 996.527 508.604 995.66 511.008C994.793 513.413 994.659 516.021 995.273 518.502C995.888 520.983 997.224 523.226 999.113 524.948C1001 526.669 1003.36 527.792 1005.89 528.174C1008.41 528.556 1011 528.18 1013.31 527.093C1015.62 526.007 1017.56 524.259 1018.88 522.07C1020.2 519.881 1020.84 517.35 1020.73 514.797Z" fill="#6C63FF"/>
<path d="M997.681 602.285C996.378 604.815 994.277 606.843 991.704 608.056C989.13 609.27 986.229 609.6 983.449 608.995C980.669 608.391 978.167 606.887 976.329 604.715C974.491 602.543 973.421 599.825 973.285 596.983C973.193 595.193 973.479 593.403 974.125 591.731C975.07 589.281 976.737 587.178 978.906 585.699C981.075 584.22 983.642 583.436 986.267 583.451C988.891 583.466 991.449 584.28 993.6 585.784C995.752 587.288 997.395 589.411 998.311 591.871L990.239 598.444L999.111 596.383C999.115 598.437 998.624 600.461 997.681 602.285Z" fill="#6C63FF"/>
<path d="M991.299 577.184C989.603 577.264 987.909 577.008 986.312 576.432C984.714 575.856 983.246 574.971 981.991 573.827C980.737 572.683 979.719 571.304 978.998 569.767C978.276 568.229 977.864 566.565 977.786 564.869C977.688 562.847 978.072 560.831 978.906 558.986C979.684 557.261 980.829 555.726 982.261 554.489C983.693 553.251 985.378 552.342 987.198 551.823L987.138 557.156L990.059 551.353C993.482 551.196 996.828 552.404 999.36 554.714C1001.89 557.023 1003.4 560.244 1003.56 563.668C1003.64 565.16 1003.45 566.654 1003.01 568.08C1002.23 570.617 1000.69 572.852 998.592 574.481C996.496 576.109 993.95 577.053 991.299 577.184Z" fill="#6C63FF"/>
<path d="M1022.68 556.305C1020.98 556.385 1019.29 556.129 1017.69 555.553C1016.09 554.977 1014.62 554.092 1013.37 552.948C1012.11 551.804 1011.1 550.424 1010.38 548.887C1009.65 547.35 1009.24 545.686 1009.16 543.99C1009.06 541.879 1009.47 539.775 1010.38 537.867C1011.14 536.263 1012.22 534.832 1013.55 533.663C1014.89 532.494 1016.45 531.612 1018.13 531.072C1019.82 530.532 1021.61 530.346 1023.37 530.526C1025.13 530.705 1026.84 531.246 1028.39 532.115L1026.11 538.367L1030.8 533.855C1033.32 536.16 1034.82 539.369 1034.98 542.779C1035.04 543.976 1034.93 545.175 1034.65 546.341C1034.01 549.078 1032.49 551.532 1030.33 553.33C1028.17 555.128 1025.48 556.172 1022.68 556.305Z" fill="#6C63FF"/>
<path opacity="0.1" d="M1019 518.239C1016 518.569 1013.1 519.489 1010.11 519.679C1007.12 519.869 1003.83 519.149 1001.94 516.818C1001.06 515.467 1000.26 514.063 999.551 512.616C998.734 511.343 997.618 510.288 996.301 509.545C995.28 511.537 994.801 513.762 994.91 515.998C995.051 519.137 996.33 522.117 998.509 524.382C1000.69 526.646 1003.62 528.039 1006.75 528.3C1009.88 528.561 1013 527.673 1015.52 525.801C1018.04 523.929 1019.8 521.201 1020.46 518.129C1019.97 518.149 1019.48 518.189 1019 518.239Z" fill="black"/>
<path opacity="0.1" d="M1022.68 556.305C1020.98 556.385 1019.29 556.129 1017.69 555.553C1016.09 554.977 1014.62 554.092 1013.37 552.948C1012.11 551.804 1011.1 550.424 1010.38 548.887C1009.65 547.35 1009.24 545.686 1009.16 543.99C1009.06 541.879 1009.47 539.775 1010.38 537.867C1011.41 538.559 1012.29 539.442 1012.98 540.468C1013.9 541.859 1014.46 543.47 1015.55 544.74C1017.55 547.101 1021 547.882 1024.12 547.741C1027.24 547.601 1030.24 546.741 1033.35 546.431C1033.78 546.431 1034.22 546.361 1034.65 546.351C1034.01 549.086 1032.49 551.538 1030.33 553.334C1028.17 555.13 1025.48 556.173 1022.68 556.305Z" fill="black"/>
<path opacity="0.1" d="M991.299 577.185C989.603 577.264 987.909 577.008 986.312 576.432C984.714 575.856 983.246 574.971 981.991 573.827C980.737 572.684 979.719 571.304 978.998 569.767C978.276 568.23 977.864 566.565 977.786 564.869C977.688 562.847 978.072 560.831 978.906 558.987C979.955 559.693 980.869 560.581 981.607 561.608C982.607 563.028 983.237 564.609 984.408 565.97C986.588 568.401 990.259 569.251 993.56 569.181C996.861 569.111 999.841 568.321 1003.02 568.081C1002.24 570.619 1000.7 572.855 998.598 574.484C996.5 576.113 993.952 577.056 991.299 577.185Z" fill="black"/>
<path opacity="0.1" d="M997.681 602.286C996.378 604.815 994.277 606.843 991.704 608.057C989.131 609.27 986.229 609.6 983.449 608.996C980.669 608.391 978.167 606.887 976.329 604.715C974.491 602.543 973.421 599.825 973.285 596.983C973.193 595.193 973.479 593.403 974.125 591.731C975.188 592.432 976.141 593.284 976.956 594.262C978.186 595.763 978.957 597.463 980.417 598.854C983.058 601.455 987.329 602.526 991.119 602.626C993.311 602.639 995.502 602.525 997.681 602.286Z" fill="black"/>
<path d="M965.413 621.334C965.413 621.334 975.606 621.024 978.686 618.833C981.767 616.642 994.37 614.031 995.14 617.542C995.911 621.054 1010.46 635.01 998.951 635.1C987.439 635.19 972.195 633.309 969.124 631.438C966.053 629.567 965.413 621.334 965.413 621.334Z" fill="#656380"/>
<path opacity="0.2" d="M999.151 633.879C987.639 633.969 972.395 632.078 969.324 630.218C966.994 628.787 966.063 623.685 965.753 621.324H965.413C965.413 621.324 966.053 629.557 969.124 631.428C972.195 633.299 987.439 635.18 998.951 635.09C1002.27 635.09 1003.42 633.879 1003.36 632.088C1002.9 633.199 1001.61 633.859 999.151 633.879Z" fill="black"/>
</g>
<defs>
<clipPath id="clip0_49_761">
<rect width="1035" height="707" fill="white" transform="translate(0 -26)"/>
</clipPath>
</defs>
</svg>
